<?xml version="1.0" encoding="UTF-8"?><svg xmlns="http://www.w3.org/2000/svg" viewBox="0 0 1533.77 622.01"><defs><style>.c{font-family:Genera-AltLight, Genera;font-size:350.92px;}</style></defs><g id="a"><g><path d="M1533.77,500.93l-113.22,40.93,7.92-259.16h-25.42c5.37-56.56,9.79-130.85,15.93-195.26-2.42-.13-4.36,.12-8.98,.05,1.65-17.67,9.56-71.82,11.3-87.49,10.64,12.41,21.43,23.79,31.26,35.16-1.4,9.77-4.57,48.87-5.86,60.84,14.21,6.49,26.04,11.71,38.32,16.73-2.1,19.9,9.11,179.43,9.11,179.43l22.59,.33,17.06,208.43Z"/><path d="M1233.39,248.95l-1.61,34.58-38.29-.86c-.1,.87-1.52,27.3-1.52,27.3l-24.57-.3s13.64-81.89,14.78-84.06c1.61,1.23,51.21,23.34,51.21,23.34Z"/></g><polygon points="1402.93 82.1 1397.05 82.83 1408.65 2.8 1413.9 2.11 1402.93 82.1"/><polygon points="1374.18 85.68 1368.85 86.34 1382.85 5.98 1387.82 5.36 1374.18 85.68"/><polygon points="1348.82 88.84 1343.49 89.51 1356.73 9.23 1362.08 8.56 1348.82 88.84"/><polygon points="1280.08 383.27 1276.99 376.56 1327.31 99.16 1331.97 98.58 1280.08 383.27"/><polygon points="1263.28 348.04 1260.32 341.68 1303.76 102.1 1308.98 101.45 1263.28 348.04"/><polygon points="1348.68 352.5 1341.33 366.09 1384.53 91.84 1389.71 91.39 1348.68 352.5"/><polygon points="1304 435.81 1301.12 428.55 1357.65 95.38 1362.79 94.74 1304 435.81"/><polygon points="1393.59 283.41 1388.44 294.42 1410.17 85.65 1415.41 83.95 1393.59 283.41"/><polygon points="1129.12 439.22 1124.98 430.28 1161.38 225.98 1166.55 225.62 1129.12 439.22"/><polygon points="1107.34 392.28 1103.58 384.14 1131.63 227.35 1136.78 227.08 1107.34 392.28"/></g><g id="b"><text class="c" transform="translate(0 543.75)"><tspan x="0" y="0">ARKHAM</tspan></text></g></svg>