<?xml version="1.0" encoding="UTF-8"?><svg xmlns="http://www.w3.org/2000/svg" viewBox="0 0 1535.79 543.75"><g id="a"><g><path d="M1535.79,500.93l-113.22,40.93,7.92-259.16h-25.42c5.37-56.56,9.79-130.85,15.93-195.26-2.42-.13-4.36,.12-8.98,.05,1.65-17.67,9.56-71.82,11.3-87.49,10.64,12.41,21.43,23.79,31.26,35.16-1.4,9.77-4.57,48.87-5.86,60.84,14.21,6.49,26.04,11.71,38.32,16.73-2.1,19.9,9.11,179.43,9.11,179.43l22.59,.33,17.06,208.43Z"/><path d="M1235.41,248.95l-1.61,34.58-38.29-.86c-.1,.87-1.52,27.3-1.52,27.3l-24.57-.3s13.64-81.89,14.78-84.06c1.61,1.23,51.21,23.34,51.21,23.34Z"/></g><polygon points="1404.96 82.1 1399.07 82.83 1410.67 2.8 1415.92 2.11 1404.96 82.1"/><polygon points="1376.21 85.68 1370.87 86.34 1384.87 5.98 1389.84 5.36 1376.21 85.68"/><polygon points="1350.84 88.84 1345.51 89.51 1358.75 9.23 1364.1 8.56 1350.84 88.84"/><polygon points="1282.1 383.27 1279.02 376.56 1329.33 99.16 1333.99 98.58 1282.1 383.27"/><polygon points="1265.3 348.04 1262.35 341.68 1305.79 102.1 1311 101.45 1265.3 348.04"/><polygon points="1350.71 352.5 1343.35 366.09 1386.55 91.84 1391.74 91.39 1350.71 352.5"/><polygon points="1306.02 435.81 1303.14 428.55 1359.67 95.38 1364.82 94.74 1306.02 435.81"/><polygon points="1395.62 283.41 1390.46 294.42 1412.2 85.65 1417.43 83.95 1395.62 283.41"/><polygon points="1131.14 439.22 1127 430.28 1163.41 225.98 1168.57 225.62 1131.14 439.22"/><polygon points="1109.37 392.28 1105.6 384.14 1133.65 227.35 1138.8 227.08 1109.37 392.28"/></g><g id="b"><g><path d="M105.11,292.49h16.84l78.42,251.26h-17.19l-23.1-74.75H48.13l-30.59,74.75H0l105.11-251.26Zm50.81,162.13l-43.49-141.07-58.28,141.07h101.77Z"/><path d="M260.57,292.49h104.57c45.27,0,68.81,32.99,66.69,73.34-1.84,35.09-23.37,64.22-59.83,70.18l62.43,107.73h-19.3l-60.83-104.93h-84.92l-5.5,104.93h-16.49l13.17-251.26Zm96.63,131.6c36.15,0,55.81-27.02,57.43-57.9s-15.21-57.9-51.36-57.9h-87.03l-6.07,115.8h87.03Z"/><path d="M503.75,292.49h16.49l-6.2,118.26h35.44l111.47-118.26h21.76l-118.16,125.28,104.99,125.98h-22.11l-98.73-118.26h-35.44l-6.2,118.26h-16.49l13.17-251.26Z"/><path d="M730.79,292.49h16.84l-6.2,118.26h142.82l6.2-118.26h16.14l-13.17,251.26h-16.14l6.2-118.26h-142.82l-6.2,118.26h-16.84l13.17-251.26Z"/><path d="M1050.83,292.49h16.84l78.42,251.26h-17.2l-23.1-74.75h-111.94l-30.59,74.75h-17.55l105.11-251.26Zm50.81,162.13l-43.49-141.07-58.28,141.07h101.77Z"/><path d="M1206.62,292.84h17.9l79.9,182.83,99.42-182.83h17.9l-13.15,250.91h-16.49l11.44-218.27-93.86,170.55h-12.28l-75.98-170.55-11.44,218.27h-16.49l13.15-250.91Z"/></g></g></svg>